<?xml version="1.0" encoding="utf-8"?>
<!-- Generator: Adobe Illustrator 20.1.0, SVG Export Plug-In . SVG Version: 6.00 Build 0)  -->
<svg version="1.1" id="Calque_1" xmlns="http://www.w3.org/2000/svg" xmlns:xlink="http://www.w3.org/1999/xlink" x="0px" y="0px"
	 viewBox="0 0 125 125" style="enable-background:new 0 0 125 125;" xml:space="preserve">
<style type="text/css">
	.st0{fill:#ACDDDE;}
	.st1{fill:#9ACA42;}
	.st2{fill:#6F933D;}
	.st3{fill:#49341B;}
</style>
<circle class="st0" cx="62.5" cy="62.5" r="62.5"/>
<path class="st1" d="M62.5,125c26.6,0,49.3-16.6,58.3-40c-16.3-9.8-37.5-14.5-60.7-14.5c-21.3,0-41,4-56.7,12.2
	C11.8,107.3,35.1,125,62.5,125z"/>
<path class="st2" d="M101.6,48.3c0-9-5.4-16.2-16.2-16.2c-1.5,0-2.9,0.2-4.3,0.4c-2.6-4.2-7.2-6.9-13.8-6.9
	c-10.8,0-16.2,7.3-16.2,16.2c0,0.2,0,0.4,0,0.5c-2.2,0.9-4,2.3-5.4,3.9c-1.9-0.7-4-1-6.4-1c-10.8,0-16.2,7.3-16.2,16.2
	c0,8.3,5,15.1,14,16.1c2.2,5.8,7.4,9.8,15.1,9.8c5.5,0,9.7-2,12.5-5.3c2.7,1.5,6,2.4,9.8,2.4c12,0,18.8-8.4,18.8-18.8
	c0-0.9-0.1-1.9-0.2-2.8C98.6,60.2,101.6,54.7,101.6,48.3z"/>
<g>
	<path class="st3" d="M49,100.3c0,0-1.5-3.5,0.1-7.7s14-19,14-19s22.6-24.4,23.8-24.4c1.2,0,2.2,1,2.2,2.2L68.5,74.5
		c0,0-9,15.8-10,18.3c-1,2.6,0.1,7.4,0.1,7.4C58.6,102,49,102,49,100.3z"/>
	<path class="st3" d="M63.1,80.3c-0.9,0-1.8-0.5-2.4-1.3L36.6,58.9c-0.6-0.9-0.3-2.1,0.5-2.6c0.9-0.6,28.4,19.6,28.4,19.6
		c0.9,1.3,0.5,3.1-0.8,4C64.2,80.2,63.7,80.3,63.1,80.3z"/>
	<path class="st3" d="M44.5,63.5c0-0.6,0.3-1.2,0.8-1.5l6.6-7.3c0.6-0.4,1.3-0.2,1.7,0.3c0.4,0.6-6.2,10-6.2,10
		c-0.9,0.6-2,0.3-2.6-0.5C44.6,64.2,44.5,63.9,44.5,63.5z"/>
	<path class="st3" d="M72.3,65.4c-0.6-0.6-4.4-26.3-4.4-26.3c0.2-0.9,1.1-1.6,2.1-1.4c0.9,0.2,6.8,26.3,6.8,26.3
		c-0.3,1.4-1.7,2.3-3.1,2.1C73.1,66,72.6,65.8,72.3,65.4z"/>
</g>
</svg>
